<?xml version="1.0" standalone="no"?>
<!DOCTYPE svg PUBLIC "-//W3C//DTD SVG 20010904//EN"
 "http://www.w3.org/TR/2001/REC-SVG-20010904/DTD/svg10.dtd">
<svg version="1.0" xmlns="http://www.w3.org/2000/svg"
 width="400.000000pt" height="400.000000pt" viewBox="0 0 400.000000 400.000000"
 preserveAspectRatio="xMidYMid meet">

<g transform="translate(0.000000,400.000000) scale(0.100000,-0.100000)"
fill="#000000" stroke="none">
<path d="M1785 3875 c-375 -46 -704 -188 -990 -427 -331 -276 -549 -643 -642
-1078 -25 -115 -27 -144 -28 -360 0 -264 11 -346 72 -550 37 -123 100 -280
113 -280 4 0 13 26 19 58 9 49 36 178 141 661 11 52 20 98 20 103 0 4 50 8
110 8 87 0 110 -3 110 -14 0 -7 -25 -129 -55 -270 -30 -141 -55 -260 -55 -266
0 -6 28 -10 64 -10 l65 0 11 53 c6 28 32 153 58 277 l48 225 113 3 c104 2 112
1 107 -15 -2 -10 -34 -157 -71 -328 -36 -170 -72 -339 -80 -375 -8 -36 -28
-130 -46 -210 -67 -315 -80 -376 -85 -392 -4 -14 -17 -18 -62 -18 l-56 0 35
-36 c103 -108 309 -249 484 -334 743 -358 1615 -200 2185 397 345 361 522 803
522 1303 0 209 -24 375 -83 566 -19 62 -86 234 -94 242 -2 2 -20 -15 -41 -38
-20 -22 -56 -52 -79 -66 l-42 -24 9 -62 c24 -171 68 -514 68 -530 0 -16 -11
-18 -114 -18 -63 0 -117 3 -119 8 -3 4 -10 129 -17 277 -12 254 -20 318 -33
263 -10 -37 -117 -537 -117 -543 0 -3 -49 -5 -110 -5 -60 0 -110 4 -110 9 0 7
257 1210 275 1288 4 18 -8 33 -62 79 -173 143 -412 277 -613 344 -266 89 -556
119 -825 85z m-616 -457 c61 -16 106 -64 120 -127 11 -51 -1 -153 -33 -276
l-12 -50 -111 -3 -110 -3 23 111 c28 129 23 150 -30 150 -62 0 -74 -20 -111
-190 -89 -405 -146 -685 -147 -712 -1 -16 5 -34 13 -39 21 -13 62 -11 85 6 21
14 28 33 60 173 l16 72 109 0 c60 0 109 -3 109 -6 0 -5 -3 -21 -36 -164 -31
-138 -85 -219 -179 -268 -46 -24 -60 -27 -165 -27 -101 0 -120 3 -157 23 -58
30 -83 81 -83 166 0 90 182 943 215 1007 74 142 242 204 424 157z m632 0 c83
-28 129 -91 129 -177 0 -51 -177 -892 -205 -971 -40 -116 -132 -190 -260 -209
-190 -28 -305 45 -305 193 0 56 187 920 211 976 43 99 105 158 194 186 51 16
192 18 236 2z m700 -40 c55 -32 79 -81 79 -159 0 -61 -170 -863 -200 -942 -40
-107 -129 -178 -247 -197 -71 -12 -350 -13 -357 -2 -4 7 266 1283 279 1320 4
11 45 13 202 10 195 -3 199 -3 244 -30z m724 -5 c-3 -21 -13 -68 -21 -105
l-15 -67 -151 -3 -151 -3 -33 -150 c-47 -216 -56 -195 85 -195 66 0 122 -4
125 -9 9 -13 -34 -194 -47 -203 -7 -5 -65 -8 -130 -7 -65 1 -119 0 -121 -2 -7
-9 -72 -335 -69 -341 2 -5 70 -8 150 -8 l145 0 -5 -22 c-3 -13 -13 -60 -23
-105 l-17 -83 -259 0 c-224 0 -258 2 -258 15 0 8 63 308 140 666 77 358 140
653 140 655 0 2 118 4 261 4 l261 0 -7 -37z m-1636 -1374 c23 -13 52 -39 64
-59 39 -62 30 -136 -72 -605 -50 -231 -98 -440 -106 -465 -51 -152 -217 -243
-391 -213 -165 29 -202 117 -150 357 14 61 55 251 91 421 37 171 76 337 87
370 35 105 98 170 201 207 75 27 217 20 276 -13z m1281 5 c53 -22 86 -63 100
-126 10 -47 9 -69 -14 -182 -15 -71 -29 -133 -32 -138 -3 -4 -52 -8 -110 -8
-121 0 -114 -11 -84 127 11 51 17 99 14 108 -9 24 -49 36 -78 25 -35 -13 -51
-44 -70 -136 -23 -107 -14 -127 107 -252 142 -147 155 -200 103 -427 -32 -136
-52 -186 -102 -243 -53 -62 -126 -94 -233 -100 -132 -7 -209 25 -250 105 -18
34 -12 149 13 263 l22 105 99 3 c54 1 104 1 111 -2 9 -4 8 -24 -7 -88 -26
-118 -25 -156 6 -170 33 -15 80 5 94 40 25 61 49 203 40 234 -11 39 -56 97
-131 166 -74 69 -111 143 -110 227 0 71 33 233 61 298 23 53 91 131 135 155
80 42 231 50 316 16z m-857 -1 c2 -5 -47 -244 -109 -533 -63 -289 -114 -540
-114 -558 0 -25 5 -35 25 -42 34 -13 80 5 94 37 10 21 241 1075 241 1097 0 3
50 6 110 6 61 0 110 -4 110 -9 0 -14 -228 -1069 -240 -1111 -17 -61 -73 -143
-121 -177 -94 -67 -268 -83 -359 -32 -65 36 -84 68 -88 147 -3 57 14 151 113
612 64 300 118 551 120 558 5 13 210 18 218 5z m1601 -28 c-1 -16 -9 -65 -19
-107 l-17 -77 -151 -3 -151 -3 -33 -150 c-47 -216 -57 -195 93 -195 126 0 126
0 121 -22 -3 -13 -13 -60 -22 -105 l-18 -82 -130 -3 -131 -3 -32 -150 c-18
-82 -36 -160 -39 -172 l-5 -23 150 0 c163 0 157 3 141 -60 -5 -19 -15 -61 -21
-92 l-11 -58 -260 0 c-208 0 -259 3 -259 13 0 7 9 56 20 108 12 52 25 114 30
139 41 201 230 1062 235 1070 4 6 101 9 258 7 l252 -2 -1 -30z"/>
<path d="M1595 3196 c-13 -13 -27 -35 -30 -48 -33 -145 -175 -818 -175 -833 0
-30 19 -45 54 -45 33 0 44 6 63 31 13 16 193 833 193 873 0 50 -64 63 -105 22z"/>
<path d="M2230 3195 c0 -3 -43 -204 -95 -448 -52 -244 -95 -446 -95 -450 0 -9
92 -9 105 1 6 4 16 14 22 23 14 17 183 787 183 831 0 17 -7 31 -19 38 -20 10
-101 14 -101 5z"/>
<path d="M1347 1800 c-17 -13 -29 -37 -37 -72 -6 -29 -17 -82 -25 -118 -8 -36
-26 -117 -39 -180 -28 -129 -69 -317 -92 -428 -21 -100 -17 -126 20 -130 43
-5 71 5 84 30 11 21 192 844 192 873 0 21 -29 45 -54 45 -13 0 -35 -9 -49 -20z"/>
<path d="M3466 3174 c-8 -26 -66 -302 -66 -314 0 -13 66 -13 89 0 22 11 34 41
56 138 l17 73 -26 37 c-59 84 -63 87 -70 66z"/>
<path d="M545 1218 c-2 -13 -14 -66 -25 -118 -12 -52 -25 -114 -30 -137 -15
-65 -13 -74 37 -137 41 -53 47 -58 54 -40 7 15 67 288 94 422 l7 32 -66 0
c-60 0 -66 -2 -71 -22z"/>
</g>
</svg>
