<?xml version="1.0" ?><svg enable-background="new 0 0 32 32" version="1.1" viewBox="0 0 32 32" xml:space="preserve" xmlns="http://www.w3.org/2000/svg" xmlns:xlink="http://www.w3.org/1999/xlink"><g id="Glyph"><path d="M21.945,3.118l-1.493-1.493H1.625v27.257h8.43l1.493,1.493h18.827V3.118H21.945z M18.649,18.982   c0.336,0.291,0.596,1.317,0.596,1.789v4.174h-2.382h-2.385c0,0,0.007-1.415,0-2.385c-3.264,0.702-4.174-1.789-4.174-1.789   c-0.596-1.193-1.193-1.789-1.193-1.789c-1.193-0.708,0-0.596,0-0.596c1.193,0,1.789,1.193,1.789,1.193   c1.047,1.777,2.909,1.491,3.578,1.193c0-0.596,0.261-1.498,0.596-1.789c-2.605-0.293-4.773-1.789-4.773-4.771   c0-2.982,0.599-3.578,1.195-4.174c-0.12-0.294-0.62-1.381,0.018-2.982c0,0,1.172,0,2.365,1.789   c0.591-0.591,2.385-0.596,2.982-0.596c0.595,0,2.39,0.005,2.981,0.596c1.193-1.789,2.368-1.789,2.368-1.789   c0.638,1.601,0.139,2.688,0.018,2.982c0.596,0.596,1.193,1.193,1.193,4.174C23.42,17.193,21.254,18.688,18.649,18.982z"/></g></svg>